# xmcd CD database file
#
# Track frame offsets:
#	150
#	15360
#	36739
#	53756
#	74865
#	91669
#	105788
#	124346
#	135677
#	148598
#	163159
#	180822
#	201919
#	241581
#
# Disc length: 3490 seconds
#
# Revision: 1
# Processed by: cddbd v1.5.2PL0 Copyright (c) Steve Scherf et al.
# Submitted via: CDex 1.51
#
DISCID=bb0da00e
DTITLE=ЧайФ - Акустические версии
DYEAR=1900
DGENRE=Blues
TTITLE0=Вперед
TTITLE1=Моя квартира
TTITLE2=Я рисую на окне
TTITLE3=Никто не услышит (Ой-йо)
TTITLE4=Скажи только слово
TTITLE5=Белая ворона
TTITLE6=Хей-хей
TTITLE7=Традиционная
TTITLE8=Оранжевое настроение
TTITLE9=Пиво
TTITLE10=Кто-то хитрый
TTITLE11=Поплачь о нем
TTITLE12=Рок-н-ролл этой ночи
TTITLE13=Рок-н-ролл этой ночи (бонус)
EXTD=
EXTT0=
EXTT1=
EXTT2=
EXTT3=
EXTT4=
EXTT5=
EXTT6=
EXTT7=
EXTT8=
EXTT9=
EXTT10=
EXTT11=
EXTT12=
EXTT13=
PLAYORDER=
